<?xml version="1.0" encoding="utf-8"?>
<!-- Generator: Adobe Illustrator 16.0.0, SVG Export Plug-In . SVG Version: 6.00 Build 0)  -->
<!DOCTYPE svg PUBLIC "-//W3C//DTD SVG 1.1//EN" "http://www.w3.org/Graphics/SVG/1.1/DTD/svg11.dtd">
<svg version="1.1" xmlns="http://www.w3.org/2000/svg" xmlns:xlink="http://www.w3.org/1999/xlink" x="0px" y="0px"
	 width="806.96px" height="1009.45px" viewBox="0 0 806.96 1009.45" enable-background="new 0 0 806.96 1009.45"
	 xml:space="preserve">
<g id="Layer_1_copy_2">
	<path fill-rule="evenodd" clip-rule="evenodd" fill="#F36F21" d="M314.62,468.229c-3.241-6.271-6.869-11.496-10.29-16.844
		c-4.286-6.699-8.532-13.43-12.997-20.01c-1.206-1.777-1.781-3.921-3.222-5.467c-4.591-4.921-4.85-10.737-4.053-16.962
		c0.966-7.541,1.473-15.155,1.866-22.728c0.456-8.773,1.72-17.477,1.886-26.264c0.033-1.76,0.097-3.793,1.568-4.918
		c2.167-1.658,4.839-0.07,5.104,3.058c0.849,10.015,1.553,20.043,2.34,30.063c0.802,10.203,1.617,20.406,2.472,30.604
		c0.185,2.212,2.178,3.433,3.341,5.005c6.084,8.234,12.508,16.217,18.807,24.293c4.619,5.92,9.295,11.797,13.798,17.803
		c1.341,1.789,3.168,2.611,4.994,3.545c0.628,0.32,1.372,1.006,2.077,0.5c0.722-0.516,0.308-1.428,0.161-2.129
		c-0.971-4.606-1.959-9.211-3.008-13.802c-2.002-8.771-4.036-17.535-6.083-26.296c-0.726-3.107-1.371-6.25-2.359-9.276
		c-0.541-1.661-0.51-3.03,0.142-4.606c6.527-15.793,13.033-31.596,19.462-47.428c0.83-2.042,2.356-2.504,4.046-2.078
		c1.74,0.438,1.972,2.092,1.611,3.678c-2.814,12.336-5.742,24.648-8.443,37.01c-1.043,4.771-2.244,9.506-3.257,14.276
		c-0.666,3.131,1.147,6.021,1.831,9.012c1.354,5.926,3.02,11.78,4.528,17.671c1.785,6.974,3.179,14.078,5.479,20.877
		c0.99,2.932,3.649,5.403,5.861,7.798c5.405,5.853,10.137,12.242,15.015,18.509c1.489,1.912,3.335,3.361,5.312,3.947
		c3.881,1.147,7.043,2.935,9.205,6.364c2.597,4.12,6.766,4.726,11.031,4.672c3.969-0.05,7.932-0.231,11.906-0.097
		c2.234,0.076,3.911-1.427,5.238-2.914c3.421-3.84,7.512-6.433,12.475-7.688c3.645-0.924,5.496-4.1,7.966-6.447
		c4.475-4.252,8.662-8.807,13.164-13.025c3.1-2.905,4.416-6.758,5.857-10.437c3.973-10.134,8.714-19.952,12.299-30.243
		c0.49-1.402,1.316-2.693,2.031-4.012c2.961-5.459,0.619-10.854-0.271-16.224c-1.707-10.29-3.603-20.548-5.42-30.818
		c-0.252-1.426-0.289-2.859,0.764-3.978c1.773-1.887,4.921-0.986,5.751,1.725c1.591,5.195,2.934,10.467,4.579,15.645
		c2.567,8.084,4.352,16.414,7.438,24.326c1.742,4.465-0.276,8.247-1.715,12.098c-3.975,10.649-8.15,21.225-12.239,31.833
		c-0.098,0.254-0.117,0.537-0.226,1.058c2.045-0.178,3.755-1.072,5.563-1.582c10.558-2.975,18.213-10.61,26.804-16.717
		c7.857-5.584,15.509-11.457,23.312-17.117c2.615-1.896,4.185-4.482,5.683-7.228c4.035-7.407,8.292-14.695,11.924-22.32
		c1.792-3.759,1.638-7.891,2.347-11.849c1.662-9.269,3.136-18.572,4.616-27.872c0.332-2.085,1.776-2.712,3.415-2.56
		c1.511,0.141,2.263,1.387,2.332,3.015c0.475,11.244,0.997,22.486,2.095,33.692c0.461,4.717,0.225,8.993-2.533,13.431
		c-4.102,6.601-7.501,13.677-11.1,20.599c-2.165,4.162-5.47,7.113-8.555,10.377c-2.879,3.045-5.678,6.166-8.416,9.148
		c1.998,0.32,4.035-1.242,6.304-1.661c2.487-0.46,4.868-1.533,7.359-1.904c6.581-0.979,10.658-5.298,14.6-10.097
		c5.25-6.393,10.775-12.554,16.157-18.838c2.439-2.85,4.848-5.727,7.211-8.641c2.547-3.143,2.881-7.145,3.764-10.842
		c2.143-8.975,4.819-17.791,7.365-26.648c2.517-8.762,5.024-17.525,7.577-26.277c0.265-0.902,0.079-1.639-0.236-2.446
		c-1.635-4.188-3.322-8.355-4.831-12.589c-1.063-2.983-3.575-4.514-5.823-6.328c-11.848-9.559-23.656-19.17-35.067-29.244
		c-2.115-1.866-3.467-4.678-4.914-7.201c-3.511-6.119-7.526-11.916-11.216-17.916c-4.855-7.899-10.16-15.513-14.769-23.572
		c-2.382-4.167-5.169-8.103-7.761-12.15c-1.385-2.162-1.148-4.432,0.548-5.543c1.506-0.988,4.072-0.078,5.348,1.822
		c4.145,6.177,9.271,11.581,13.82,17.441c3.391,4.368,6.817,8.72,10.462,12.874c3.703,4.222,7.006,8.764,10.739,12.972
		c2.255,2.541,4.475,5.315,6.303,8.206c3.004,4.751,7.375,7.954,11.547,11.4c3.872,3.199,7.957,6.141,11.949,9.197
		c5.327,4.08,10.69,8.113,15.969,12.256c3.704,2.907,6.489,6.691,9.397,10.342c0.29,0.363,0.464,0.812,1.276,0.939
		c1.38-5.312,2.723-10.661,4.163-15.983c2.486-9.188,4.942-18.386,7.592-27.526c1.398-4.819,0.753-9.736,1.189-14.597
		c1.033-11.494-5.321-21.059-8.451-31.457c-2.459-8.167-5.3-16.226-8.139-24.274c-2.188-6.201-4.62-12.316-6.988-18.451
		c-0.272-0.707-0.581-1.363-0.63-2.141c-0.125-1.989,0.415-3.634,2.48-4.233c2.005-0.582,3.463,0.341,4.452,2.099
		c3.492,6.21,6.913,12.463,10.498,18.62c5.422,9.311,9.489,19.316,14.902,28.639c3.478,5.991,6.453,12.273,9.681,18.412
		c0.488,0.928,1.023,1.795,0.83,2.916c-0.653,3.796-1.072,7.646-1.964,11.385c-2.62,10.971-5.328,21.917-7.633,32.961
		c-1.707,8.18-3.423,16.361-5.369,24.484c-4.026,16.813-9.769,33.115-14.938,49.588c-1.341,4.273-2.415,8.631-3.084,13.346
		c3.063-2.253,6.118-4.516,9.191-6.755c3.917-2.853,7.889-5.631,11.766-8.538c6.986-5.239,14.366-9.973,20.915-15.774
		c2.33-2.065,2.611-5.372,3.532-8.198c3.498-10.74,6.836-21.532,10.238-32.303c0.142-0.449,0.303-0.898,0.515-1.317
		c0.861-1.706,2.201-2.682,4.128-2.065c1.891,0.605,1.803,2.356,1.483,3.803c-0.531,2.408-0.504,4.869-0.925,7.27
		c-1.826,10.41-3.338,20.901-4.695,31.344c-0.959,7.391-5.598,11.045-9.936,15.441c-7.01,7.104-14.053,14.193-21.431,20.904
		c-5.58,5.076-10.887,10.41-16.168,15.77c-9.96,10.105-21.647,18.027-32.842,26.583c-4.405,3.367-8.579,7.048-13.088,10.265
		c-5.807,4.145-11.288,8.696-16.932,13.043c-4.381,3.375-9.89,3.936-14.892,5.698c-7.877,2.776-15.967,4.954-23.96,7.405
		c-9.195,2.819-18.363,5.732-27.587,8.458c-3.593,1.062-5.551,4.077-8.107,6.315c-4.086,3.578-7.866,7.507-11.948,11.115
		c-2.609,2.308-3.195,5.918-4.982,8.787c-1.726,2.764-2.654,5.936-4.436,8.721c-1.1,1.716-0.934,4.03-0.707,6.066
		c0.513,4.603-0.186,8.79-3.277,12.425c-0.789,0.927-1.523,2.032-0.582,3.317c1.002,1.369,2.178,0.742,3.531,0.512
		c5.104-0.865,7.939-4.773,11.1-8.115c6.183-6.534,12.032-13.379,18.4-19.746c3.638-3.637,6.595-7.985,10.85-10.969
		c5.389-3.777,10.868-7.441,16.455-10.919c3.025-1.884,6.649-0.675,9.982-1.115c2.745-0.362,5.59,0.072,8.389,0.028
		c1.469-0.022,2.142,0.531,2.015,1.976c-0.739,8.457-0.395,16.951-5.356,24.741c-3.287,5.157-3.964,11.676-5.429,17.683
		c-1.158,4.752-2.961,8.88-6.553,12.464c-4.887,4.878-9.237,10.298-13.729,15.561c-0.861,1.009-1.883,1.639-3.03,1.915
		c-8.472,2.047-15.225,6.92-21.585,12.614c-5.516,4.938-11.258,9.628-16.983,14.324c-1.493,1.223-2.312,2.509-2.422,4.474
		c-0.313,5.554-0.155,11.019,0.733,16.563c2.307,14.389,4.216,28.842,6.25,43.274c0.863,6.12,3.748,11.563,5.709,17.315
		c2.686,7.885,5.45,15.744,8.27,23.583c1.43,3.972,2.625,8.021,4.502,11.841c2.422,4.93,1.152,10.146,0.556,15.214
		c-0.934,7.912-2.165,15.79-3.321,23.676c-1.09,7.441-2.258,14.87-3.369,22.308c-0.632,4.215-3.082,7.615-5.053,11.209
		c-4.014,7.314-7.939,14.682-11.996,21.966c-2.947,5.291-5.795,10.687-9.16,15.717c-1.577,2.356-4.637,3.443-7.116,4.965
		c-5.608,3.44-11.007,7.232-16.611,10.639c-5.838,3.551-11.613,7.23-17.562,10.607c-2.907,1.651-5.806,3.321-8.647,5.081
		c-0.871,0.54-1.427,0.603-2.207-0.118c-9.226-8.524-19.376-15.96-28.645-24.447c-6.143-5.625-12.767-10.722-19.108-16.134
		c-1.121-0.957-2.147-2.187-2.808-3.495c-2.875-5.694-5.921-11.334-8.3-17.237c-3.724-9.242-8.275-18.092-12.257-27.206
		c-1.031-2.36-0.399-4.837-0.438-7.243c-0.137-8.718-0.089-17.438-0.098-26.158c-0.007-7.141,0.508-14.325-0.127-21.407
		c-0.665-7.409,2.884-13.377,5.213-19.797c1.627-4.484,3.471-8.896,5.384-13.268c2.772-6.333,4.927-12.949,7.92-19.146
		c3.663-7.582,5.175-15.099,4.262-23.586c-1.316-12.223-1.661-24.555-2.228-36.848c-0.218-4.725-3.729-7.104-6.366-10.159
		c-0.171-0.198-0.573-0.209-0.726-0.412c-5.216-6.962-12.941-10.196-20.471-13.655c-5.099-2.343-9.961-5.157-15.185-7.253
		c-3.842-1.542-6.376-4.829-9.062-7.805c-3.56-3.941-6.952-8.031-10.476-12.005c-4.31-4.861-5.237-11.275-7.785-16.938
		c-1.945-4.321-3.008-9.037-4.915-13.379c-1.058-2.408-1.738-4.853-1.303-7.24c0.726-3.986,0.661-8.029,1.333-12.007
		c0.229-1.354,0.864-1.874,1.99-1.825c4.964,0.215,9.923,0.523,14.884,0.783c2.452,0.129,4.16,1.703,5.831,3.17
		c7.186,6.314,14.459,12.544,21.393,19.129c8.253,7.84,17.129,14.969,25.399,22.78c2.798,2.644,7.184,3.471,9.263,2.124
		c1.235-0.801,1.685-1.668,1.001-3.039c-1.131-2.273-2.048-4.672-3.376-6.818c-2.169-3.51-1.302-7.324-1.418-11.027
		c-0.049-1.571-0.254-2.828-1.352-4.073c-3.571-4.048-7.781-7.392-11.723-11.032c-2.941-2.717-5.769-5.559-8.629-8.363
		c-1.102-1.08-2.33-1.746-3.887-2.105c-14.235-3.283-28.452-6.648-42.67-10.006c-8.024-1.895-16.067-3.717-24.047-5.788
		c-3.139-0.815-5.246-3.507-7.831-5.328c-10.119-7.126-20.479-13.95-30.213-21.571c-9.238-7.232-19.525-12.569-29.643-18.252
		c-6.686-3.754-13.559-7.175-20.364-10.717c-0.642-0.333-0.987-0.787-1.255-1.427c-2.187-5.204-5.481-9.858-7.724-14.997
		c-2.098-4.805-4.708-9.35-6.715-14.188c-0.819-1.974-1.861-3.865-2.938-5.715c-0.685-1.176-1.13-2.402-1.238-3.715
		c-0.095-1.15,0.143-2.305,1.314-2.918c1.091-0.573,2.104-0.452,3.177,0.262c2.261,1.504,3.63,3.815,5.171,5.879
		c5.699,7.637,11.7,15.057,17.296,22.739c3.665,5.03,8.952,5.929,13.693,8.474c6.316,3.39,13.088,5.674,19.518,8.756
		c0.507,0.244,1.006,0.512,1.53,0.713c0.575,0.219,1.171,0.869,1.789,0.258c0.575-0.566,0.118-1.259-0.086-1.854
		c-1.712-4.985-3.485-9.951-5.175-14.945c-2.098-6.202-4.125-12.428-6.198-18.638c-2.578-7.724-5.24-15.419-7.73-23.17
		c-1.6-4.983-2.924-10.018-3.313-15.313c-0.325-4.439-1.394-8.818-2.096-13.229c-1.226-7.702-2.192-15.44-3.477-23.128
		c-0.504-3.015,0.92-5.413,2.01-7.753c3.315-7.121,6.335-14.365,9.489-21.551c3.462-7.886,6.96-15.758,10.238-23.722
		c4.075-9.898,8.667-19.561,13.026-29.33c3.098-6.94,5.987-13.973,9.058-20.926c0.755-1.709,1.393-4.246,4.078-3.093
		c2.188,0.938,1.319,3.087,0.821,4.735c-2.143,7.09-4.357,14.158-6.607,21.215c-1.454,4.557-3.043,9.072-4.519,13.622
		c-3.154,9.727-6.552,19.385-9.33,29.218c-2.845,10.076-6.286,19.951-9.328,29.956c-0.708,2.331,0.102,4.551,0.598,6.629
		c2.185,9.146,3.187,18.506,5.317,27.654c0.87,3.739,1.562,7.521,2.38,11.272c0.457,2.092,1.968,1.503,3.1,0.916
		c3.756-1.948,7.745-3.313,11.639-4.918c6.834-2.818,13.521-6.069,20.521-8.381c4.144-1.369,6.358-4.258,8.204-7.485
		c4.484-7.837,9.837-15.173,13.948-23.18c3.322-6.471,8.319-10.768,14.055-14.825c7.87-5.566,15.581-11.389,23.211-17.274
		c7.085-5.463,14.604-10.404,21.166-16.535c2.234-2.088,3.639-0.135,5.022,0.963c1.682,1.335,0.614,2.724-0.589,3.769
		c-8.755,7.607-16.975,15.769-25.17,23.967c-6.746,6.747-13.861,13.128-20.542,19.938c-2.035,2.074-3.212,5.008-4.713,7.587
		c-5.853,10.063-11.839,20.056-17.429,30.264c-1.897,3.466-5.105,4.474-8.097,6.032c-11.313,5.891-23.109,10.831-34.132,17.295
		c-1.479,0.868-3.898,0.163-4.522,2.337c-0.647,2.251,0.449,4.454,0.985,6.574c1.449,5.732,3.468,11.32,4.892,17.057
		c2.396,9.649,5.416,19.117,7.963,28.719c0.399,1.508,1.255,2.669,2.456,3.659c3.118,2.573,6.485,4.927,9.208,7.874
		c3.634,3.932,7.834,7.215,11.606,10.979c4.173,4.164,8.719,7.953,13.066,11.945c2.951,2.711,6.822,2.457,10.339,3.211
		c8.439,1.811,16.929,3.385,25.404,5.022C308.842,467.301,311.428,467.688,314.62,468.229z M351.088,487.539
		c3.71,0.136,6.738,2.513,10.291,3.146c2.689,0.48,4.976,2.353,8.419,2.47c-0.786-0.664-1.093-1.003-1.468-1.228
		c-5.1-3.066-9.685-6.893-14.522-10.315c-5.73-4.056-11.074-8.567-17.659-11.284c-1.133-0.467-2.078-1.605-2.883-2.615
		c-2.965-3.724-5.87-7.496-8.731-11.3c-5.37-7.144-11.287-13.855-16.573-21.075c-1.86-2.541-3.754-5.212-6.757-7.67
		c1.313,3.374,2.37,6.145,3.355,8.93c2.679,7.571,5.869,14.966,8.934,22.396c2.708,6.57,6.339,12.386,12.66,16.252
		c1.257,0.769,2.636,1.23,3.875,2.041c4.256,2.786,8.768,5.059,13.598,6.811c2.532,0.918,5.47,1.263,7.476,3.441
		c-0.165,1.704-1.052,0.717-1.686,0.424c-1.599-0.74-3.21-1.413-4.977-1.592c-0.19,0.67,0.14,1.063,0.465,1.325
		c6.421,5.179,12.855,10.34,19.31,15.477c0.328,0.261,1.006,0.517,1.269,0.357c3.135-1.89,6.223-3.859,9.765-6.087
		c-6.62-2.598-12.528-4.93-18.637-6.717C354.518,490.113,352.599,489.176,351.088,487.539z M352.144,795.904
		c0.785-1.386,0.584-2.285,0.406-3.184c-1.059-5.342-1.667-10.763-1.872-16.177c-0.305-8.063-1.511-16.03-2.152-24.055
		c-0.479-5.992-0.621-11.976-0.082-17.899c0.499-5.484,0.714-10.988,1.303-16.472c0.713-6.646,0.552-13.383,0.922-20.071
		c0.627-11.313,1.541-22.611,1.967-33.93c0.122-3.239,1.246-6.486,0.496-10.277c-0.607,1.164-1.009,1.808-1.293,2.5
		c-4.947,12.07-9.886,24.144-14.809,36.223c-0.918,2.253-2.174,4.447-2.196,6.94c-0.074,8.33-0.087,16.661-0.041,24.99
		c0.044,7.957,0.665,15.945,0.139,23.86c-0.397,5.972,0.509,11.445,3.077,16.641c3.161,6.393,5.925,12.948,8.769,19.477
		C348.402,788.197,350.227,791.837,352.144,795.904z M427.789,775.455c-1.969,3.379-3.168,6.954-4.188,10.488
		c-2.574,8.914-5.867,17.582-8.728,26.395c-3.147,9.692-6.903,19.188-9.921,28.932c-0.387,1.248-1.185,2.823-0.165,3.717
		c0.973,0.851,2.228-0.406,3.22-1.01c5.199-3.163,10.38-6.357,15.537-9.588c9.181-5.752,18.305-11.595,27.536-17.263
		c1.829-1.123,1.797-2.166,0.716-3.563c-2.914-3.765-5.063-8.012-7.646-11.984c-2.77-4.258-5.604-8.476-8.313-12.772
		C433.091,784.45,430.932,779.733,427.789,775.455z M454.442,639.404c-0.256,0.057-0.515,0.112-0.771,0.169
		c0.729,4.844,0.284,9.675,0.207,14.512c-0.173,10.764-0.202,21.531-0.248,32.297c-0.047,10.723-0.026,21.445-0.08,32.169
		c-0.008,1.764,0.273,2.215,2.262,1.63c9.26-2.73,18.566-5.306,27.91-7.732c2.465-0.64,2.277-1.601,1.535-3.519
		c-1.996-5.147-3.925-10.313-6.236-15.334c-3.559-7.731-7.068-15.483-10.555-23.246c-2.553-5.685-4.994-11.419-7.559-17.099
		C458.812,648.609,456.603,644.018,454.442,639.404z M355.636,802.576c4.537-4.092,8.704-8.229,13.292-11.835
		c2.52-1.981,4.208-4.757,6.943-6.47c0.626-0.393,1.222-1.244,1.063-2.2c-0.291-1.762-0.474-3.562-0.973-5.265
		c-2.399-8.176-3.645-16.612-5.293-24.934c-1.698-8.567-3.742-17.063-5.405-25.638c-0.417-2.147,0.13-4.693-1.504-6.595
		c-0.878,0.287-1.035,0.951-1.332,1.535c-3.051,6.01-6.209,11.968-9.149,18.033c-1.403,2.894-3.786,5.403-3.668,8.958
		c0.234,7.049,1.451,14.005,1.704,21.072c0.254,7.108,1.271,14.206,2.254,21.268C354.115,794.432,353.577,798.582,355.636,802.576z
		 M469.295,785.954c3.183-4.063,4.733-8.329,7.11-12.099c1.425-2.261,2.171-4.767,2.505-7.427c0.839-6.69,2.043-13.325,2.976-20.007
		c1.42-10.18,3.027-20.334,4.279-30.541c0.204-1.655-0.291-1.537-1.619-1.442c-3.623,0.258-6.855,1.857-10.273,2.786
		c-6.043,1.64-12.231,2.709-18.157,4.852c-2.397,0.865-2.468,2.426-1.942,4.12c0.796,2.566,1.434,5.166,2.167,7.744
		c2.792,9.817,4.819,19.824,7.46,29.684C465.716,770.779,467.298,778.048,469.295,785.954z M402.818,840.624
		c0.242,0.059,0.485,0.117,0.728,0.176c1.14-4.715,2.974-9.205,4.556-13.765c3.375-9.734,6.638-19.51,10.034-29.237
		c2.494-7.146,4.832-14.352,7.448-21.452c0.722-1.958,0.167-3.239-1.072-4.448c-7.37-7.195-14.776-14.354-22.173-21.521
		c-0.468-0.454-0.959-1.195-1.605-0.993c-0.874,0.276-0.667,1.183-0.649,1.951c0.186,8.037,0.333,16.074,0.509,24.111
		c0.124,5.614,0.021,11.25,0.47,16.839c0.842,10.481,0.552,20.989,1.095,31.474C402.448,829.377,402.602,835.002,402.818,840.624z
		 M434.18,658.818c-0.762,6.19-1.535,12.005-2.18,17.833c-0.646,5.857-1.131,11.73-1.746,17.592
		c-0.615,5.86-1.348,11.708-1.947,17.568c-0.602,5.874-1.566,11.763-1.52,17.637c0.047,5.672-2.255,11.101-1.329,17.392
		c5.087-4.805,9.884-9.263,14.596-13.81c3.352-3.236,6.51-6.68,9.926-9.844c1.074-0.993,1.357-1.648,0.965-3.075
		c-2.054-7.487-3.961-15.015-5.905-22.532c-2.142-8.276-3.971-16.648-6.519-24.797C437.11,668.271,436.651,663.44,434.18,658.818z
		 M426.186,770.71c-0.979-6.413-1.783-12.056-2.74-17.672c-0.249-1.466-0.004-3.035-0.8-4.4
		c-5.836-10.025-10.331-20.729-15.625-31.031c-5.526-10.755-11.015-21.541-15.839-32.646c-1.424-3.279-3.215-6.399-4.838-9.593
		c-0.807,1.774-0.27,3.374,0.065,4.912c2.208,10.13,3.86,20.372,6.356,30.45c1.403,5.664,2.242,11.475,3.585,17.172
		c1.049,4.449,1.659,9.007,2.833,13.418c0.61,2.292,0.743,5.015,2.655,6.689C409.985,755.141,418.186,762.209,426.186,770.71z
		 M403.316,513.939c-0.283-0.02-0.567-0.037-0.851-0.057c-2.206,3.321-4.364,6.676-6.626,9.959
		c-7.437,10.791-14.892,21.568-22.028,32.566c-1.028,1.583-1.024,2.496,0.574,3.609c4.465,3.108,8.795,6.408,13.266,9.509
		c4.39,3.045,8.877,5.95,13.342,8.888c0.933,0.614,2.066,1.533,2.137-0.715c0.204-6.468,0.229-12.958,0.099-19.402
		c-0.193-9.49,0.258-18.963,0.104-28.443C403.246,524.549,403.316,519.244,403.316,513.939z M452.14,724.007
		c-0.65,0.404-1.141,0.564-1.42,0.901c-3.159,3.809-7.129,6.781-10.576,10.297c-4.129,4.211-8.43,8.253-12.71,12.311
		c-1.415,1.342-1.434,2.457,0.056,3.707c1.723,1.447,3.419,2.931,5.076,4.453c2.602,2.391,4.992,5.042,7.77,7.199
		c5.899,4.578,11.156,9.875,16.828,14.705c3.16,2.694,6.246,5.464,9.857,7.84C462.084,765.043,457.147,744.666,452.14,724.007z
		 M410.14,628.265c0.002-0.1,0.003-0.198,0.006-0.297c0.841,0.05,1.681,0.131,2.522,0.144c4.897,0.076,4.967-0.215,6.389-5.073
		c0.902-3.082,1.963-6.435,3.972-8.799c2.938-3.456,5.544-7.212,8.763-10.438c0.527-0.53,0.65-1.149-0.248-1.542
		c-2.105-0.92-3.432-3.316-5.872-3.451c-2.057-0.114-3.064-2.707-5.258-2.036c-3.408,1.041-7.007,1.776-10.11,3.424
		c-4.384,2.324-8.566,3.16-13.364,1.533c-2.449-0.83-5.123-1.07-7.415-2.386c-3.013-1.731-5.499-1.229-7.345,1.686
		c-0.697,1.102-1.236,2.282-1.978,3.381c-1.564,2.318-0.939,4.896,1.476,6.01c3.893,1.792,7.284,4.418,11.076,6.361
		c1.002,0.513,2.144,0.996,2.307,2.29c0.357,2.835,2.565,4.977,2.838,7.854c0.106,1.112,0.979,1.389,2.089,1.365
		C403.371,628.218,406.756,628.265,410.14,628.265z M398.784,749.591c-3.569,3.411-4.896,8.196-7.494,12.289
		c-4.119,6.492-7.705,13.32-11.507,20.013c-0.516,0.909-0.896,1.806-0.481,2.939c2.84,7.766,5.611,15.558,8.442,23.328
		c3.287,9.02,6.482,18.077,10.011,27.001c0.899,2.274,1.206,5.03,3.743,7.191C400.792,810.984,399.042,780.194,398.784,749.591z
		 M425.52,752.261c-0.154,0.668-0.393,1.117-0.333,1.522c0.779,5.296,1.032,10.686,2.446,15.869
		c1.494,5.488,4.958,10.032,7.782,14.835c5.52,9.383,11.446,18.527,17.169,27.791c1.249,2.021,2.029,1.311,2.891-0.287
		c3.739-6.947,7.478-13.898,11.302-20.802c0.82-1.481,0.127-2.358-0.863-3.117c-3.474-2.656-6.088-6.234-9.702-8.767
		c-3.038-2.128-5.242-5.297-8.132-7.562C440.354,765.691,433.539,758.617,425.52,752.261z M349.851,741.179
		c0.544-1.566,2.118-2.315,2.625-3.729c1.83-5.105,4.99-9.553,7.149-14.479c1.161-2.648,3.603-4.771,3.652-7.825
		c0.098-6.217,0.002-12.439-0.057-18.658c-0.084-8.812-0.363-17.623-0.262-26.432c0.086-7.512-0.013-15.026,0.174-22.543
		c0.157-6.27,0.402-12.746-1.965-18.846c-1.325-3.413-2.608-6.842-3.91-10.263c-0.572,5.11,0.23,10.072,0.39,15.061
		c0.104,3.25,1.276,6.648-0.274,9.736c-2.72,5.42-2.556,11.327-3.043,17.057c-0.743,8.73-0.59,17.536-1.276,26.273
		c-0.808,10.291-1.544,20.577-1.958,30.892c-0.158,3.915-0.281,7.874-0.75,11.727C349.855,733.159,350.458,737.156,349.851,741.179z
		 M406.116,581.258c1.206,1.712,3.095,2.857,4.865,4.108c4.551,3.22,9.387,6.09,13.633,9.666c2.625,2.211,5.634,3.563,8.423,5.369
		c0.468,0.302,1.414,1.22,1.783-0.083c0.76-2.679,3.033-4.394,4.176-6.766c2.583-5.365,6.213-10.06,9.223-15.139
		c1.088-1.835,3.678-3.805,1.373-6.471c-3.103-3.588-5.916-7.386-8.568-11.311c-0.682-1.005-1.493-0.846-2.4-0.218
		c-2.08,1.44-4.055,3.149-6.333,4.165c-5.058,2.252-9.044,6.138-13.981,8.615C414.02,575.349,410.226,578.488,406.116,581.258z
		 M224.15,431.859c-0.133,0.211-0.266,0.422-0.4,0.631c2.983,3.252,6.031,6.447,8.933,9.771c3.322,3.806,6.441,7.789,9.782,11.578
		c4.17,4.729,8.443,9.368,12.738,13.985c1.961,2.108,3.754,4.712,6.577,5.501c3.307,0.924,6.653,1.798,10.01,2.565
		c9.995,2.284,20.022,4.43,30.03,6.66c4.566,1.017,9.116,2.104,13.674,3.16c-2.072-1.706-4.222-3.073-6.592-4.187
		c-4.882-2.292-9.612-4.91-14.402-7.399c-4.72-2.454-9.459-4.868-14.145-7.386c-3.558-1.913-7.415-3.229-10.782-5.521
		c-6.485-4.414-12.984-8.809-19.498-13.181c-5.799-3.894-12.146-6.907-17.584-11.417
		C230.063,434.607,226.951,433.421,224.15,431.859z M365.645,718.143c0.063,1.112-0.051,1.971,0.177,2.725
		c2.719,8.949,3.829,18.253,6.059,27.305c1.259,5.11,1.75,10.353,3.214,15.447c1.316,4.58,1.696,9.433,2.467,14.169
		c0.109,0.678,0.199,1.403,0.914,1.618c0.756,0.227,1.114-0.354,1.476-0.979c5.787-10.011,11.605-20.004,17.409-30.006
		c0.608-1.047,1.005-2.185-0.295-2.96c-3.556-2.119-6.293-5.129-9.289-7.915C380.711,730.976,373.285,724.794,365.645,718.143z
		 M662.067,365.25c-1.653-0.63-2.503-0.808-3.188-1.243c-1.749-1.108-3.161-0.903-4.844,0.368
		c-5.319,4.021-10.793,7.838-16.172,11.782c-8.028,5.888-16.007,11.847-24.061,17.7c-1.426,1.035-3.442,1.392-4.621,2.608
		c-3.574,3.692-7.767,6.338-12.333,8.583c-4.723,2.32-10.145,3.445-13.441,8.287c-1.021,1.499-1.51,3.224-2.537,4.601
		c-4.521,6.051-7.605,12.937-11.558,19.347C599.882,413.12,630.728,389.381,662.067,365.25z M397.022,839.093
		c-0.37-1.103-0.077-2.166-0.522-3.285c-3.417-8.571-7.068-17.076-9.896-25.845c-2.523-7.828-5.889-15.354-8.036-23.304
		c-0.359-1.326-1.128-1.489-2.554-0.871c-2.05,0.889-2.357,3.123-3.982,4.261c-4.863,3.404-8.881,7.8-13.45,11.557
		c-1.843,1.515-1.755,3.526-0.067,4.734c5.53,3.96,10.5,8.643,15.544,13.137C381.564,826.159,389.46,832.363,397.022,839.093z
		 M432.524,658.367c-0.243-0.014-0.484-0.027-0.728-0.042c-1.924,3.273-3.803,6.573-5.784,9.811
		c-1.709,2.792-3.604,5.471-5.289,8.277c-2.112,3.52-4.222,7.026-6.044,10.737c-0.973,1.979-1.728,3.51-1.168,5.643
		c2.83,10.786,5.34,21.64,6.834,32.705c0.75,5.552,2.068,10.98,3.459,16.545C426.725,714.023,429.625,686.195,432.524,658.367z
		 M452.257,637.08c-5.138,4.334-9.561,9.351-14.547,13.724c-2.437,2.138-2.734,4.378-1.855,6.697
		c1.459,3.848,2.416,7.792,3.512,11.729c1.622,5.837,3.388,11.66,4.882,17.51c1.974,7.727,4.002,15.452,5.883,23.206
		c0.392,1.609,0.47,3.427,2.126,4.773C452.257,688.895,452.257,663.068,452.257,637.08z M541.172,463.776
		c-4.473,0-8.521-0.591-12.324,0.118c-9.115,1.697-18.374,0.57-27.479,1.983c-5.258,0.815-10.744-0.444-15.883,1.747
		c-4.136,1.763-8.467,3.01-12.592,4.858c-1.901,0.852-2.281,1.707-2.285,3.499c-0.006,5.496-0.168,10.986,0.562,16.461
		c0.091,0.689-0.503,1.574,0.408,1.975c0.813,0.355,1.422-0.416,1.933-0.886c2.22-2.036,4.297-4.229,6.555-6.218
		c3.357-2.955,6.107-6.744,10.652-8.127c5.638-1.715,11.314-3.307,16.933-5.086c5.73-1.814,11.463-3.64,17.199-5.413
		C530.109,467.063,535.451,465.698,541.172,463.776z M249.122,464.414c-3.574-6.006-8.987-10.021-12.975-15.258
		c-2.655-3.488-5.707-6.681-8.668-9.926c-5.093-5.58-9.383-11.809-17.577-13.946c-9.789-2.556-19.307-6.154-29.171-8.564
		c-1.537-0.376-3.428-0.817-4.417-2.301c-3.281-4.917-6.414-9.933-9.664-14.873c-1.46-2.22-3.061-4.348-4.598-6.517
		c-0.204,0.145-0.408,0.288-0.612,0.432c2.852,6.079,6.099,11.973,9.122,17.959c1.167,2.313,1.685,5.408,4.699,6.731
		c9.532,4.182,18.197,10.007,27.563,14.563c10.458,5.087,19.328,12.774,28.854,19.38
		C237.436,456.087,242.771,460.682,249.122,464.414z M404.95,577.777c0.033-0.012,0.295-0.028,0.361-0.149
		c5.146-9.48,10.47-18.858,15.871-28.196c1.144-1.979,2.78-4.16,0.962-6.988c-2.617-4.077-4.752-8.459-7.172-12.666
		c-2.518-4.379-5.163-8.686-7.679-13.067c-0.672-1.17-0.915-2.605-2.343-3.482C404.95,534.917,404.95,556.369,404.95,577.777z
		 M461.91,587.289c1.766-3.37,3.524-6.743,5.298-10.107c3.303-6.267,6.608-12.528,9.923-18.788
		c2.694-5.088,5.407-10.166,8.106-15.254c0.41-0.774,0.844-1.874-0.125-2.239c-3.215-1.209-5.092-4.119-7.871-5.857
		c-2.322-1.451-4.164-1.758-6.176,0.832c-1.844,2.376-3.927,4.741-7.184,5.534c-3.887,0.947-4.553,1.954-2.664,5.459
		c2.607,4.841,3.552,9.729,3.414,15.26c-0.139,5.536-0.719,10.78-2.937,15.85C460.362,581.027,461.19,584.151,461.91,587.289z
		 M365.547,589.845c-0.958-0.243-1.015,0.595-1.344,1.114c-2.452,3.865-4.358,8.015-6.479,12.05
		c-1.316,2.504-1.599,4.637-1.06,7.194c0.258,1.22,1.031,2.208,1.341,3.336c1.548,5.621,4.02,10.957,5.118,16.711
		c0.12,0.63,0.495,1.047,1.037,1.233c0.88,0.303,1.175-0.523,1.437-1.032c2.782-5.399,5.526-10.819,8.253-16.247
		c2.475-4.924,4.788-9.935,7.433-14.764c1.085-1.979,0.314-2.636-1.265-3.311c-3.624-1.552-7.375-2.809-10.831-4.76
		C368.049,590.728,366.765,590.347,365.547,589.845z M204.482,314.433c-1.329,4.868-2.151,9.781-3.253,14.64
		c-1.707,7.528-2.294,15.26-3.924,22.823c-0.595,2.761-1.101,6.042,2.323,7.913c1.691,0.925,3.263,2.087,4.997,2.915
		c3.703,1.767,7.295,3.713,10.702,5.999c1.11,0.744,2.077,0.854,3.369,0.16c2.89-1.553,5.903-2.875,8.877-4.271
		c0.832-0.391,2.092-0.584,1.938-1.68c-0.129-0.916-1.294-1.15-2.194-1.504c-2.731-1.072-5.796-1.283-8.228-3.125
		c-1.622-1.229-3.448-1.957-5.466-1.895c-1.143,0.036-1.555-0.402-1.629-1.402c-0.494-6.68-2.303-13.121-3.555-19.664
		C207.105,328.375,205.799,321.403,204.482,314.433z M456.062,620.478c-1.955,0-3.514-0.021-5.072,0.004
		c-4.561,0.072-9.129,0.347-13.676,0.144c-1.611-0.071-3.098,0.02-4.25,0.865c-3.561,2.61-7.755,4.025-11.471,6.344
		c-1.56,0.975-1.517,1.438-0.7,2.947c2.69,4.968,6.5,9.215,8.992,14.295c0.904,1.842,1.957,3.588,3.232,5.214
		c0.701,0.894,1.209,1.227,1.79,0.017c1.357-2.827,3.656-4.993,5.555-7.39c1.969-2.483,3.617-5.182,5.596-7.657
		C449.714,630.678,453.548,626.155,456.062,620.478z M644.441,381.836c-0.898,0.596-1.663,0.989-2.295,1.538
		c-9.054,7.874-19.051,14.521-28.49,21.896c-6.338,4.95-12.693,9.897-18.991,14.887c-8.235,6.521-16.54,12.959-24.874,19.347
		c-3.049,2.337-5.646,4.771-7.347,8.192c-0.96,1.931-1.991,3.82-3.364,5.516c-0.674,0.833-1.382,1.749-1.061,3.024
		C588.658,433.59,619.02,410.734,644.441,381.836z M426.088,612.912c0.176,0.232,0.352,0.463,0.529,0.697
		c1.801-0.703,3.577-1.476,5.406-2.097c8.077-2.738,16.176-5.418,24.252-8.163c0.929-0.316,2.067-0.48,2.406-1.705
		c1.125-4.058,1.368-8.25,1.245-12.389c-0.136-4.596-2.315-8.513-5.291-12.008c-0.577-0.678-1.285-1.055-1.922-1.58
		c-0.541-0.446-1.025-0.321-1.298,0.386c-1.481,3.837-4.097,6.955-6.431,10.264c-1.607,2.278-3.352,4.591-4.32,7.158
		c-1.281,3.394-4.541,5.552-5.274,9.186c-0.026,0.126-0.336,0.169-0.454,0.302C431.982,606.275,429.034,609.595,426.088,612.912z
		 M412.61,698.339c0.229-6.869-2.147-12.374-3.201-18.101c-1.035-5.622-2.729-11.154-3.474-16.866
		c-0.176-1.351-0.995-1.793-2.153-2.237c-2.119-0.812-4.372-0.48-6.526-1.103c-4.744-1.369-9.557-2.498-14.357-3.664
		c-0.505-0.123-1.744-0.399-1.463,0.583c0.916,3.198,0.733,6.854,2.94,9.52c2.652,3.202,5.525,6.223,8.217,9.409
		c3.521,4.167,7.476,7.963,11.131,12.022C406.62,691.117,409.344,694.488,412.61,698.339z M555.348,370.426
		c-0.34,0.664-0.591,0.961-0.646,1.289c-1.024,6.28-2.001,12.568-3.041,18.846c-0.779,4.713-0.774,9.791-2.644,14.035
		c-3.344,7.595-7.579,14.842-11.921,21.941c-4.553,7.443-7.92,15.373-11.329,23.594c2.042-0.766,3.157-2.246,4.368-3.49
		c4.571-4.701,10.196-8.476,13.426-14.364c4.466-8.145,8.663-16.437,13.044-24.628c0.834-1.559,1.211-3.098,1.081-4.85
		C556.896,392.152,556.144,381.502,555.348,370.426z M606.295,391.404c5.083-7.018,24.802-78.407,23.943-84.359
		c-1.481,2.488-2.907,5.111-4.547,7.593c-4.309,6.517-8.877,12.857-11.104,20.525c-0.619,2.136-0.368,4.284-0.83,6.397
		c-1.386,6.343-2.335,12.762-3.162,19.199c-0.372,2.896-0.692,5.799-1.104,8.689C608.447,376.771,607.363,384.086,606.295,391.404z
		 M494.683,463.826c3.239,0.522,5.947,0.082,8.66-0.058c5.863-0.3,11.756-0.343,17.58-0.993c8.67-0.967,17.373-1.328,26.063-1.896
		c3.38-0.223,6.744-0.367,8.108-4.111c0.776-2.132,1.964-3.988,3.06-5.906c1.899-3.322,3.892-6.586,6.035-9.776
		c3.046-4.534,5.59-9.405,8.349-14.132c-5.258,5.096-9.956,10.586-14.673,16.063c-1.816,2.107-3.096,5.183-5.817,5.899
		c-11.666,3.068-23.065,7.208-35.039,9.053c-5.738,0.884-11.299,2.515-16.934,3.827
		C498.402,462.186,496.405,462.091,494.683,463.826z M396.513,743.111c-1.337-8.081-4.403-15.496-6.675-23.143
		c-1.615-5.434-4.089-10.661-5.269-16.218c-0.632-2.977-1.644-2.124-2.964-0.978c-3.833,3.327-7.934,6.31-11.892,9.475
		c-3.487,2.787-3.367,4.285,0.434,7.169c5.694,4.32,10.404,9.723,15.962,14.199C389.758,736.558,393.057,739.932,396.513,743.111z
		 M258.635,451.838c0.066-0.085,0.133-0.17,0.2-0.254c-0.872-0.831-1.745-1.662-2.616-2.493
		c-6.373-6.083-12.789-12.138-19.667-17.633c-2.93-2.341-4.783-4.94-5.776-8.511c-0.578-2.074-0.966-4.192-1.58-6.26
		c-1.935-6.514-3.783-13.055-5.603-19.602c-1.56-5.612-3.035-11.247-4.547-16.871c-0.915,2.86-0.621,5.646-0.579,8.434
		c0.074,4.97-0.145,9.949,0.086,14.908c0.212,4.564,0.375,9.123,0.312,13.691c-0.06,4.35-0.129,9.086,3.804,11.715
		c6.117,4.088,12.456,7.854,18.572,11.971C246.916,444.752,252.828,448.217,258.635,451.838z M290.961,360.379
		c-0.575,6.924-1.175,13.846-1.718,20.773c-0.731,9.324-1.438,18.651-2.115,27.98c-0.337,4.645-1.016,9.169,2.154,13.488
		c3.813,5.193,6.93,10.896,10.386,16.355c2.368,3.738,4.8,7.435,7.204,11.149c-0.675-3.56-1.638-6.946-2.855-10.24
		c-1.695-4.587-3.457-9.157-5.459-13.614c-0.648-1.443,0.039-3.094-0.989-4.281c-1.989-2.299-1.767-5.256-1.823-7.807
		c-0.122-5.521-0.664-10.994-1.042-16.484c-0.423-6.147-0.904-12.295-1.576-18.42C292.435,372.971,292.603,366.58,290.961,360.379z
		 M386.882,672.948c11.333,23.02,22.667,46.039,34,69.058c0.273-0.116,0.546-0.233,0.82-0.349c-1.12-3.358-1.652-6.811-2.173-10.295
		c-1.103-7.4-2.573-14.75-4.076-22.083c-0.513-2.503-0.534-5.115-2.414-7.351C404.688,692,395.814,682.538,386.882,672.948z
		 M228.279,225.422c-12.845,27.531-24.594,55.505-36.643,83.852c3.342-0.831,6.107-1.611,8.915-2.185
		c1.96-0.399,2.798-1.67,3.365-3.38c1.832-5.52,3.105-11.199,5.086-16.687c1.524-4.22,2.359-8.731,3.848-12.932
		c3.255-9.179,5.61-18.636,8.977-27.77c1.104-2.996,2.064-6.049,2.989-9.107C226.003,233.291,227.692,229.513,228.279,225.422z
		 M476.448,530.275c0.337,0.246,0.49,0.453,0.621,0.439c7.039-0.741,14.148-0.491,21.169-1.55c4.183-0.63,8.443-0.451,12.639-1.128
		c1.831-0.294,1.827-1.687,1.157-2.313c-2.053-1.918-2.866-4.555-4.221-6.814c-2.067-3.447-4.897-6.502-5.793-10.67
		c-0.512-2.38-2.486-2.627-4.142-0.881c-4.123,4.35-8.313,8.637-12.414,13.006C482.415,523.614,479.464,526.953,476.448,530.275z
		 M407.169,654.991c0,1.128-0.006,2.256,0.003,3.384c0.004,0.607,0.217,1.359,0.908,0.907c1.184-0.774,2.53-0.426,3.772-0.909
		c6.039-2.35,12.443-3.449,18.705-4.993c2.032-0.5,1.643-1.176,0.946-2.131c-3.456-4.735-5.964-10.054-9.259-14.881
		c-1.238-1.814-2.586-4.559-3.926-5.057c-1.889-0.704-3.244,2.524-4.977,3.893c-0.804,0.635-1.702,1.278-2.212,2.126
		c-0.998,1.653-3.143,2.512-3.262,4.751C407.638,646.385,407.402,650.689,407.169,654.991z M216.52,415.676
		c1.063-2.076,0.178-3.857,0.244-5.583c0.224-5.813-0.09-11.647-0.341-17.442c-0.271-6.285-0.547-12.52,0.222-18.768
		c0.238-1.932-0.434-3.238-2.152-4.162c-4.419-2.374-8.782-4.857-13.223-7.189c-0.737-0.387-1.43-1.838-2.318-0.917
		c-0.674,0.698-0.162,1.995,0.225,2.95c2.077,5.129,3.703,10.401,5.301,15.693c1.623,5.374,3.4,10.704,5.215,16.018
		C211.871,402.65,214.161,408.986,216.52,415.676z M322.979,269.817c-3.219,2.652-9.744,7.12-15.927,12.075
		c-6.774,5.43-13.958,10.351-20.983,15.466c-3.676,2.678-7.949,5.036-8.929,9.856c-0.715,3.518-1.963,6.851-3.107,10.147
		c-2.565,7.396-4.527,14.962-7.289,23.052c3.733-6.281,6.938-12.021,10.479-17.543c4.177-6.516,6.607-14.141,12.484-19.584
		c3.06-2.834,5.996-5.802,8.994-8.703c3.566-3.451,7.236-6.801,10.687-10.363C314.838,278.597,320.143,272.833,322.979,269.817z
		 M372.581,561.502c1.782,1.541,1.048,3.484,1.367,5.188c1.733,9.287,5.553,17.846,9.206,26.462
		c0.814,1.921,2.233,1.223,3.245,0.473c5.259-3.902,10.432-7.921,15.887-12.094C392.201,574.996,382.417,568.408,372.581,561.502z
		 M438.774,555.101c-1.623-2.294-0.33-4.993-1.225-7.329c-1.255-3.271-0.903-6.806-1.772-10.119
		c-0.696-2.652-0.187-5.868-2.68-7.759c-2.96-2.244-6.169-4.163-9.27-6.221c-3.723-2.472-7.415-4.987-11.184-7.387
		c-1.337-0.851-2.324-2.265-4.018-2.55c0.037,1.758,1.252,3.01,2.015,4.425c3.626,6.728,7.965,13.052,11.213,20.007
		c1.049,2.244,2.193,4.809,4.055,6.236C430.306,547.781,433.981,551.953,438.774,555.101z M366.97,641.271
		c7.952,28,16.696,55.666,26.166,83.576c0.385-2.37-0.098-4.258-0.509-6.102c-1.518-6.813-3.506-13.543-4.644-20.416
		c-1.888-11.414-4.814-22.604-6.864-33.98c-0.543-3.012-0.383-6.439-2.262-8.915C375.134,650.53,370.958,645.972,366.97,641.271z
		 M611.682,335.754c0.22-1.646-0.869-2.299-2.126-2.864c-3.157-1.419-6.754-1.601-9.755-3.472c-0.371-0.232-0.934-0.324-1.292,0.132
		c-0.314,0.399-0.378,0.939-0.054,1.312c1.54,1.766,1.948,4.07,2.797,6.125c1.691,4.099,4.224,8.172,1.838,12.949
		c-0.567,1.137-0.962,2.592-0.807,3.82c0.67,5.246-0.568,10.381-0.645,15.579c-0.086,5.911-0.398,11.821-0.604,17.731
		c-0.123,3.521-0.152,7.051-0.404,10.563c-0.061,0.847-0.226,1.623,0.64,1.834c1.014,0.246,1.116-0.734,1.321-1.453
		c0.154-0.543,0.386-1.067,0.498-1.617c1.649-8.098,1.817-16.388,3.213-24.523c1.012-5.897,1.751-11.842,2.629-17.764
		C609.836,347.986,610.763,341.871,611.682,335.754z M373.652,493.299c-0.418-2.096-2.105-3.182-3.231-4.625
		c-3.923-5.028-7.718-10.205-12.1-14.814c-3.185-3.35-5.24-6.957-6.087-11.406c-0.345-1.815-0.89-3.592-1.341-5.385
		c-1.839-7.32-3.662-14.643-5.522-21.955c-0.735-2.893-1.555-5.763-2.467-9.132c-0.932,1.431-0.657,2.247-0.578,3.075
		c0.508,5.344,1.282,10.685,1.397,16.039c0.162,7.466,0.299,14.916,1.833,22.244c0.543,2.592,0.164,5.869,2.619,7.465
		c3.323,2.159,6.052,5.012,9.355,7.173C362.997,485.553,367.875,489.986,373.652,493.299z M376.816,611.718
		c-3.828,7.533-7.289,14.354-10.758,21.171c-0.538,1.056-0.7,1.785,0.359,2.89c3.531,3.683,7.39,6.99,11.264,10.272
		c2.878,2.44,4.959,5.831,8.93,7.567C383.422,639.688,380.735,625.956,376.816,611.718z M439.655,549.887
		c0,0.377-0.063,0.767,0.012,1.129c0.26,1.247,0.004,3.072,1.444,3.372c1.185,0.248,1.677-1.417,2.356-2.384
		c3.49-4.959,6.879-9.957,9.969-15.204c2.627-4.462,5.041-8.651,4.497-14.052c-0.167-1.639-0.172-2.65-2.128-1.676
		c-0.586,0.291-1.234,0.455-1.824,0.736c-5.211,2.489-9.84,6.079-15.293,8.117c-1.361,0.509-1.955,1.465-1.464,2.871
		c1.032,2.956,0.548,6.098,1.233,9.144C439.038,544.508,439.556,547.195,439.655,549.887z M361.183,533.859
		c1.965-0.377,2.564-1.844,3.621-2.708c8.032-6.579,15.987-13.253,23.992-19.866c0.525-0.434,1.193-0.805,1.151-1.486
		c-0.065-1.068-1.144-0.797-1.78-0.969c-2.892-0.779-5.922-0.895-8.859-1.25c-3.598-0.437-7.149-1.356-10.829-1.365
		c-1.93-0.006-2.583,0.475-2.882,2.381c-0.678,4.328-1.718,8.598-2.486,12.914C362.398,525.518,361.848,529.552,361.183,533.859z
		 M335.36,570.111c-0.146-1.163-0.11-1.747-0.298-2.246c-3.166-8.385-5.154-17.164-8.576-25.473
		c-0.818-1.983-1.395-1.955-2.786-0.65c-4.745,4.451-9.488,8.909-14.365,13.212c-1.655,1.462-1.428,2.052,0.432,2.829
		c2.379,0.997,4.854,1.906,6.995,3.303C322.439,564.792,328.855,566.854,335.36,570.111z M282.266,464.852
		c-0.088,0.239-0.177,0.477-0.265,0.715c3.67,1.875,7.306,3.821,11.021,5.605c4.487,2.154,8.949,4.411,13.359,6.666
		c3.886,1.987,7.701,4.314,11.63,6.281c7.242,3.627,6.204,4.588,10.714-3.459c0.138-0.247,0.257-0.504,0.377-0.758
		c0.323-0.676,0.332-1.146-0.496-1.572c-5.513-2.83-10.371-6.99-16.816-7.913c-3.609-0.517-7.167-1.384-10.755-2.059
		C294.78,467.182,288.605,465.545,282.266,464.852z M514.628,525.341c1.19-3.5,2.267-6.559,3.157-9.685
		c0.564-1.984,0.591-4.285,1.655-5.918c3.364-5.166,1.853-10.135,0.035-15.186c-0.472-1.309-1.238-2.134-2.734-1.127
		c-4.636,3.125-9.254,6.277-13.939,9.33c-1.252,0.814-0.969,1.531-0.387,2.537c2.084,3.605,3.964,7.34,6.217,10.836
		C510.571,519.139,511.926,522.559,514.628,525.341z M431.514,655.128c-7.843,1.146-14.662,3.613-21.692,5.196
		c-2.846,0.641-2.828,2.548-2.36,4.659c1.371,6.189,2.832,12.357,4.239,18.538c0.163,0.714,0.021,1.686,0.952,1.827
		c1.048,0.159,1.316-0.82,1.683-1.583c2.617-5.448,6.326-10.248,9.4-15.426C426.244,664.117,428.633,659.84,431.514,655.128z
		 M406.484,578.689c1.368-0.609,2.045-0.766,2.542-1.154c4.08-3.179,8.634-5.614,12.969-8.393c5.057-3.239,10.021-6.62,15.072-9.87
		c1.501-0.967,1.278-1.662-0.108-2.341c-1.301-0.638-2.082-1.727-3.04-2.76c-2.243-2.421-4.865-4.501-7.414-6.624
		c-1.126-0.937-2.049-1.167-2.843,0.735c-1.03,2.472-2.594,4.723-3.925,7.068C415.451,562.899,411.165,570.447,406.484,578.689z
		 M385.118,596.512c3.776,0.84,6.792,2.011,9.867,2.61c3.394,0.661,6.646,2.845,10.375,1.384c4.357-1.708,8.741-3.351,13.154-4.909
		c1.889-0.668,2.049-1.314,0.404-2.479c-4.738-3.355-9.461-6.733-14.17-10.131c-1.189-0.857-1.878-0.028-2.692,0.615
		c-2.273,1.798-4.552,3.59-6.859,5.344C392.021,591.361,388.817,593.739,385.118,596.512z M351.055,557.724
		c-1.753,0.095-3.294-0.52-2.988,1.866c0.996,7.754,1.294,15.626,4.221,23.031c0.265,0.67,0.192,1.81,0.958,1.8
		c0.963-0.015,1.849-0.619,2.447-1.622c1.717-2.88,3.475-5.744,5.375-8.505c2.484-3.607,4.513-7.501,7.188-10.997
		c1.83-2.392,1.339-3.116-1.682-3.745C361.278,558.449,355.869,558.443,351.055,557.724z M364.742,707.935
		c2.908-5.866,3.108-12.308,5.301-18.27c1.403-3.813,1.958-7.94,2.911-11.923c0.545-2.277,1.537-4.756,0.762-6.886
		c-2.692-7.394-4.834-14.938-6.953-22.499c-0.521-1.859-1.33-3.638-2.021-5.494C364.742,664.662,364.742,686.298,364.742,707.935z
		 M302.474,527.799c2.125,0.795,4.022,0.307,5.88,0.28c7.115-0.104,14.228-0.354,21.34-0.565c0.783-0.021,1.547-0.307,1.868-1.035
		c0.345-0.785-0.464-1.137-0.915-1.559c-1.163-1.09-2.375-2.127-3.547-3.207c-4.845-4.465-9.663-8.957-14.542-13.383
		c-0.705-0.641-1.76-1.557-2.184,0.404c-0.787,3.648-3.305,6.525-4.422,10.106C305.025,521.814,303.748,524.752,302.474,527.799z
		 M507.737,554.936c0.124,0.067,0.247,0.135,0.37,0.202c3.095-3.501,6.364-6.865,9.218-10.552c1.807-2.336,4.373-4.143,5.199-7.244
		c1.301-4.896,2.769-9.748,4.125-14.629c0.63-2.269,1.082-4.488-0.372-6.739c-0.735-1.136-1.544-2.506-1.314-3.931
		c0.319-2.008-0.653-3.324-1.704-4.727c-3.092,2.996-2.926,7.13-4.201,10.645c-2.618,7.215-4.466,14.711-6.683,22.075
		C510.875,545.016,509.287,549.97,507.737,554.936z M305.166,529.261c0.009,0.284,0.018,0.568,0.026,0.854
		c3.479,1.214,6.934,2.502,10.441,3.624c6.529,2.088,13.063,4.041,15.76,11.471c0.882,2.426,2.59,2.49,4.561,0.87
		c2.922-2.401,5.758-4.933,9.099-6.777c0.974-0.538,0.784-1.159,0.087-1.762c-3.454-2.981-6.902-5.97-10.391-8.911
		c-0.545-0.458-1.21-0.871-2.065-0.49c-2.912,1.296-6.05,1.014-9.097,1.082C317.449,529.355,311.306,529.261,305.166,529.261z
		 M290.529,501.848c0.161,0.543,0.243,0.91,0.376,1.258c2.784,7.238,5.566,14.477,8.375,21.705c0.218,0.561,0.117,1.635,0.965,1.467
		c0.598-0.118,1.346-0.883,1.524-1.504c1.676-5.844,4.518-11.205,6.838-16.779c0.583-1.4,0.383-2.645-0.676-3.611
		c-3.604-3.291-7.266-6.52-10.92-9.755c-0.577-0.511-1.335-1.022-2.004-0.318C292.92,496.506,291.476,499.098,290.529,501.848z
		 M406.28,641.64c0.568-0.963-0.042-1.545-0.618-2.201c-1.963-2.238-3.889-4.508-5.817-6.775c-1.046-1.229-1.597-0.849-2.103,0.498
		c-1.04,2.767-2.399,5.389-3.273,8.249c-1.226,4.008-2.891,7.881-4.367,11.813c-0.723,1.925,0.074,2.854,1.913,3.591
		c3.832,1.537,7.958,1.725,11.863,2.88c1.647,0.487,1.545-0.757,1.596-1.82C405.732,652.462,406.009,647.051,406.28,641.64z
		 M618.984,227.92c-0.784,0.941-0.289,1.721-0.022,2.475c3.525,9.995,7.059,19.985,10.605,29.973
		c0.474,1.335,0.557,2.592,0.425,4.071c-0.32,3.591-0.104,7.229-0.104,10.988c2.321-3.066,4.325-6.482,6.78-9.425
		c3.918-4.695,4.515-8.533-0.104-12.917c-2.587-2.455-3.481-6.173-5.815-8.831c-2.191-2.496-4.165-5.15-5.926-7.921
		C622.997,233.459,621.216,230.584,618.984,227.92z M522.936,239.293c2.718,7.19,7.696,12.892,11.498,19.337
		c5.93,10.052,12.635,19.646,18.572,29.694c2.038,3.451,3.897,5.327,8.043,4.207c2.513-0.68,3.304-1.783,1.715-3.703
		c-1.795-2.169-3.36-4.504-5.12-6.684c-8.908-11.035-17.923-21.985-26.876-32.984C528.117,245.903,525.543,242.583,522.936,239.293z
		 M512.854,530.842c-3.521,1.467-6.978,2.834-10.371,4.342c-3.818,1.697-7.585,3.516-11.368,5.292
		c-1.582,0.743-1.053,2.036-0.299,2.757c4.446,4.252,7.81,9.46,12.329,13.668c1.827,1.701,1.964,0.479,2.311-0.695
		C507.955,547.758,510.396,539.293,512.854,530.842z M426.79,615.587c4.483,1.757,8.518,3.624,13.027,3.431
		c4.155-0.177,8.289-0.374,12.461-0.167c2.989,0.148,5.821-0.521,7.381-3.809c1.629-3.438-0.021-6.628-0.309-9.908
		c-0.075-0.876-0.976-0.714-1.973-0.334c-4.416,1.681-8.938,3.08-13.422,4.584C438.303,611.278,432.427,612.563,426.79,615.587z
		 M291.36,538.123c4.249,5.905,9.563,10.337,13.402,16.006c0.611,0.9,1.417,1.091,2.401,0.329c2.852-2.213,5.645-4.478,8.211-7.034
		c2.735-2.727,5.631-5.293,8.847-8.292C312.939,539.642,302.344,537.44,291.36,538.123z M469.877,449.883
		c-1.592,3.867-3.109,7.574-4.646,11.273c-1.584,3.818-3.053,7.691-4.82,11.423c-1.84,3.881-1.283,7.646-0.838,11.749
		c0.495,4.561,2.777,7.143,6.187,9.369c0.469,0.307,0.973,0.561,1.466,0.826c0.688,0.373,1.145,1.643,2.088,0.959
		c1.137-0.822-0.121-1.636-0.322-2.46c-0.133-0.538-0.231-1.097-0.251-1.648c-0.14-4.112-0.189-8.23-0.401-12.341
		c-0.191-3.744-0.77-7.189,0.439-11.213c1.478-4.927,1.221-10.518,2.113-15.774C471.031,451.221,470.941,450.557,469.877,449.883z
		 M471.903,387.514c0,0.962-0.063,1.405,0.009,1.825c1.874,10.848,3.81,21.685,5.61,32.544c0.467,2.813,1.926,5.719,0.529,8.539
		c-2.885,5.833-4.375,11.999-4.986,18.418c-0.314,3.301-0.532,6.611-0.793,9.917c1.014-0.63,1.427-1.417,1.738-2.241
		c2.808-7.469,5.361-15.043,8.486-22.375c1.75-4.112,1.658-7.762,0.26-11.896c-2.309-6.823-3.82-13.92-6.223-20.705
		C474.95,397.068,474.567,392.211,471.903,387.514z M390.236,513.076c-1.408,0.004-1.912,0.908-2.675,1.377
		c-3.063,1.883-5.38,4.644-8.129,6.896c-5.409,4.434-11.043,8.6-16.141,13.412c-0.574,0.543-1.178,1.113-0.956,1.848
		c0.177,0.584,0.929,0.84,1.613,0.939c3.058,0.444,6.097,0.834,9.008,2.082c3.59,1.543,5.344,0.53,6.879-3.028
		C383.184,528.828,386.671,521.113,390.236,513.076z M290.321,507.646c-0.902,2.916-0.145,5.6-0.256,8.256
		c-0.237,5.694-0.42,11.393-0.602,17.09c-0.077,2.416,1.035,3.518,3.55,3.482c7.155-0.102,14.275,0.602,21.405,1.078
		c1.415,0.094,2.961,0.51,4.374-0.246c-0.149-1.188-1.073-1.135-1.704-1.404c-3.627-1.557-7.41-2.668-11.206-3.713
		c-3.957-1.088-7.799-2.801-8.576-7.074c-0.729-4.01-2.933-7.251-4.18-10.947C292.401,512.02,291.813,509.752,290.321,507.646z
		 M375.307,675.259c-1.264,3.685-1.437,7.313-2.547,10.613c-2.66,7.911-4.186,16.046-5.668,24.209
		c-0.111,0.609-1.089,1.441-0.045,1.854c0.598,0.238,1.254-0.547,1.861-1.008c3.319-2.524,6.107-5.687,9.799-7.785
		c3.601-2.047,3.915-3.406,2.931-7.574C380.025,688.731,377.194,682.295,375.307,675.259z M441.062,498.834
		c-0.684-0.02-1.583-0.539-2.009,0.339c-0.224,0.462,0.269,0.775,0.649,1.093c5.575,4.657,10.826,9.686,16.528,14.211
		c2.208,1.751,3.035,0.983,3.979-0.943c1.853-3.789,3.718-7.572,5.554-11.369c1.236-2.552,1.084-2.895-1.731-2.793
		C456.358,499.647,448.733,498.498,441.062,498.834z M461.124,616.923c-2.596,2.184-2.454,5.075-3.209,7.448
		c-1.426,4.482-4.413,8.829-2.013,14.003c0.488,1.052,1.299,1.758,1.767,2.78c3.447,7.53,6.314,15.321,10.166,22.67
		c0.346,0.659,0.592,1.369,0.904,2.046c1.329,2.869,2.136,5.983,4.273,9.227c-0.107-0.981-0.106-1.327-0.189-1.65
		c-0.145-0.544-0.319-1.081-0.52-1.606c-2.438-6.427-5.421-12.634-6.156-19.651c-0.818-7.818-2.124-15.588-3.24-23.375
		C462.355,624.956,461.753,621.106,461.124,616.923z M195.836,345.895c0.183-2.323,1.44-4.288,1.556-6.527
		c0.5-9.68,3.939-18.851,4.984-28.453c0.227-2.09-0.428-2.105-1.81-1.883c-2.765,0.445-5.448,1.221-8.033,2.305
		c-1.367,0.574-1.937,1.481-1.713,3.088c0.889,6.371,1.421,12.799,2.539,19.127C194.082,337.644,194.99,341.715,195.836,345.895z
		 M352.078,372.977c-0.229-0.057-0.457-0.113-0.685-0.169c-2.947,5.948-4.861,12.332-7.557,18.378
		c-3.442,7.721-6.451,15.613-9.739,23.391c-0.625,1.479-0.154,2.254,0.992,2.629c1.855,0.608,3.738,1.084,5.459,2.066
		c0.935,0.532,1.261-0.401,1.234-0.951c-0.11-2.251,1.099-4.137,1.557-6.223c1.626-7.414,3.276-14.822,4.932-22.23
		C349.529,384.234,350.808,378.606,352.078,372.977z M464.932,585.597c0.733-0.144,1.058-0.109,1.233-0.255
		c4.67-3.881,9.381-7.719,13.956-11.713c1.599-1.394,3.27-2.571,3.696-5.259c0.412-2.599-0.131-5.2,0.602-7.731
		c1.265-4.37,1.309-8.884,1.279-13.487C478.764,559.849,471.467,572.313,464.932,585.597z M455.886,517.323
		c-6.169-6.523-13.379-11.417-19.522-17.808c-1.593,5.744-1.631,11.418-2.451,16.974c-0.258,1.745,0.471,2.677,2.585,2.422
		c3.432-0.411,6.928-0.286,10.346-0.755C449.774,517.756,452.806,518.203,455.886,517.323z M598.598,366.615
		c-1.017,0.955-1.109,2.089-1.456,3.088c-1.51,4.357-2.295,8.932-3.651,13.307c-2.171,7-3.963,14.087-5.859,21.153
		c-0.478,1.774,0.139,2.166,1.581,1.598c2.253-0.888,4.39-2.077,6.651-2.937c2.05-0.779,2.716-2.211,2.42-4.191
		c-0.693-4.632-0.022-9.273-0.092-13.908C598.102,378.763,599.054,372.799,598.598,366.615z M248.811,342.409
		c-10.736,4.456-21.055,8.737-31.386,13.026c0.123,0.24,0.161,0.473,0.29,0.545c4.367,2.468,9.239,3.654,13.883,5.42
		c0.757,0.287,1.48,0.072,2.042-0.576c3.474-4.015,7.058-7.939,10.384-12.072C245.572,346.826,247.512,345.151,248.811,342.409z
		 M433.957,527.981c-0.63-1.022-1.061-1.438-1.154-1.916c-1.279-6.595-4.561-12.544-6.115-19.05
		c-0.229-0.947-0.157-2.325-1.307-2.635c-1.023-0.275-1.422,0.938-2.094,1.545c-3.168,2.865-6.157,6.217-11.251,4.496
		c-0.879-0.296-2.043,0.25-3.076,0.408C417.326,516.308,424.729,522.863,433.957,527.981z M496.806,460.453
		c0.611,0,1.065,0.09,1.472-0.016c4.781-1.222,9.501-2.795,14.348-3.631c4.973-0.855,9.227-2.309,11.2-7.428
		c1.138-2.951,2.232-5.92,3.277-8.907c0.205-0.589,0.265-1.39-0.457-1.765c-0.586-0.305-1.052,0.191-1.494,0.518
		c-8.063,5.937-16.163,11.824-24.146,17.867C499.654,458.115,497.704,458.455,496.806,460.453z M368.729,557.96
		c-0.196-0.986-0.176-1.688-0.466-2.219c-2.496-4.574-4.755-9.293-7.769-13.556c-0.591-0.836-0.381-3.387-2.707-1.979
		c-1.263,0.767-3.144,0.912-3.723,2.33c-1.509,3.695-3.203,7.294-4.896,10.901c-0.52,1.108-0.608,2.401,1.665,2.464
		c4.267,0.116,8.486,1.01,12.778,1.191C365.215,557.161,366.955,556.75,368.729,557.96z M576.575,301.013
		c1.165,3.526,3.746,6.032,5.743,8.925c2.788,4.04,5.491,8.231,8.859,11.758c4.495,4.708,11.021,5.246,17.011,6.877
		C599.858,316.818,587.327,309.967,576.575,301.013z M355.475,586.355c1.878,0.226,3.477,0.328,5.035,0.63
		c2.217,0.43,3.712-0.087,5.352-1.937c2.422-2.734,4.266-5.876,6.705-8.566c1.476-1.631,1.654-3.306,0.615-5.393
		c-0.726-1.459-1.017-3.274-1.001-4.926c0.017-1.808-0.721-3.202-1.347-4.736C366.309,570.029,360.33,577.577,355.475,586.355z
		 M488.994,543.489c-0.946,2.476-3.024,22.883-2.534,24.849c4.043-3.855,9.266-5.256,14.178-7.234
		c1.838-0.741,2.166-1.175,0.721-2.787C497.136,553.607,492.751,549.023,488.994,543.489z M341.609,487.111
		c-0.14,0.121-0.281,0.243-0.42,0.365c2.967,6.6,5.806,13.264,8.954,19.775c1.55,3.207,3.778,4.035,6.516,2.609
		c2.031-1.059,3.719-2.764,5.592-4.14c1.238-0.909,0.978-1.356-0.219-2.194c-2.595-1.819-5.026-3.875-7.493-5.872
		C350.216,494.155,345.918,490.627,341.609,487.111z M376.458,548.465c1.2-0.369,1.537-1.225,1.967-1.86
		c3.035-4.48,5.97-9.03,8.969-13.533c3.874-5.816,7.771-11.616,11.674-17.412c1.024-1.521,3.04-3.275,2.312-4.701
		c-0.558-1.095-3.315-0.468-5.074-0.231c-1.291,0.174-2.509-0.348-3.547,1.688c-2.678,5.248-4.641,10.809-7.391,16.005
		c-2.451,4.629-3.945,9.698-6.703,14.203C377.635,544.306,377.226,546.37,376.458,548.465z M388.28,651.864
		c0.279-2.059,1.874-3.369,2.491-5.276c1.225-3.789,2.065-7.771,4.323-11.228c2.114-3.235,1.358-5.808-1.976-6.711
		c-2.954-0.799-5.867-1.617-8.675-2.845c-0.517-0.227-2.009-0.486-1.542,0.659c0.598,1.47,0.344,2.936,0.654,4.381
		C385.055,637.837,387.14,644.705,388.28,651.864z M459.843,577.479c4.847-10.214,4.313-26.404-2.749-33.47
		c-0.407,2.031-1.247,3.831-1.849,5.688c-0.693,2.149-1.604,4.37-0.967,6.766C456.115,563.359,457.933,570.259,459.843,577.479z
		 M619.26,319.134c0.49-0.552,1.118-1.031,1.446-1.667c3.301-6.395,7.636-12.147,11.309-18.309c3.26-5.471,2.597-9.27-1.915-12.184
		c-1.409-0.908-1.938-0.561-2.635,0.99c-1.709,3.814-2.079,7.971-3.387,11.863C621.967,306.113,620.771,312.631,619.26,319.134z
		 M345.34,501.617c-0.131-0.317-0.263-0.655-0.409-0.988c-2.389-5.434-4.669-10.922-7.22-16.279
		c-1.142-2.398-4.097-2.639-6.076-4.092c-0.329-0.242-0.76,0.086-0.846,0.48c-0.46,2.098-2.119,3.498-3.035,5.312
		c-0.67,1.326-1.344,2.916,1.273,3.132c1.021,0.084,1.835,0.749,2.625,1.496c3.927,3.709,7.94,7.326,11.905,10.998
		c0.409,0.377,0.689,0.963,1.358,0.707C345.103,502.311,345.174,501.934,345.34,501.617z M348.163,539.898
		c-1.081,0.031-1.926,0.584-2.851,1.089c-3.247,1.773-5.683,4.545-8.596,6.709c-1.773,1.318-1.078,1.703,0.248,2.739
		c2.615,2.043,6.101,2.338,8.595,4.608c0.763,0.693,1.622,0.323,2.074-0.931c1.207-3.348,2.67-6.602,3.908-9.939
		C352.717,541.004,351.737,539.83,348.163,539.898z M237.369,359.05c1.511-0.37,2.369-0.585,3.323-1.067
		c6.033-3.045,12.126-5.977,18.246-8.844c2.663-1.246,2.89-1.749,1.012-3.941c-1.159-1.354-2.405-2.631-3.583-3.969
		c-0.961-1.092-1.906-0.873-2.921-0.092c-2.328,1.79-3.873,4.271-5.773,6.439C244.421,351.288,241.083,354.926,237.369,359.05z
		 M477.864,532.629c1.426,2.293,3.438,3.073,5.032,4.266c2.667,1.992,5.562,4.9,9.003,0.954c0.151-0.175,0.543-0.118,0.794-0.231
		c4.986-2.24,9.969-4.489,14.952-6.736c-0.048-0.175-0.095-0.35-0.142-0.523C497.762,531.104,488.021,531.85,477.864,532.629z
		 M272.458,315.377c-0.274-0.119-0.549-0.237-0.823-0.356c-3.609,5.951-7.202,11.913-10.833,17.852
		c-4.28,7.001-5.285,6.052,1.888,12.356C266.519,335.375,268.792,325.155,272.458,315.377z M361.401,539.141
		c2.731,5.285,6.015,9.84,8.086,15.047c0.235,0.589,0.547,1.284,1.335,1.271c0.682-0.013,0.831-0.69,1.055-1.178
		c1.137-2.467,2.131-5.006,3.385-7.41c2.401-4.605,2.474-4.793-2.272-5.864C369.293,540.172,365.641,538.818,361.401,539.141z
		 M287.378,529.464c0.122-0.005,0.243-0.009,0.365-0.013c-0.108-1.577-0.572-3.226-0.263-4.717c1.393-6.729,0.03-13.57,0.995-20.307
		c0.104-0.727,0.111-1.887-1.371-1.212c-2.11,0.959-4.274,1.8-6.391,2.744c-1.151,0.515-1.634,1.16-1.063,2.641
		C282.319,515.521,284.819,522.504,287.378,529.464z M457.43,578.043c-1.073-7.593-4.026-13.796-4.698-20.53
		c-0.109-1.107-0.961-0.974-1.719-0.792c-2.088,0.498-4.172,1.016-6.254,1.541c-2.236,0.565-2.232,1.752-0.721,3.108
		c2.188,1.966,3.355,4.669,5.178,6.887C451.752,571.34,454.347,574.374,457.43,578.043z M364.126,506.014
		c-2.439,2.686-5.03,3.797-7.24,5.442c-0.479,0.357-1.303,0.22-1.375,1.175c-0.487,6.543-0.978,13.072,3.739,19.217
		C360.877,523.227,362.435,514.977,364.126,506.014z M381.231,594.305c-1.33-5.652-4.257-10.327-5.58-15.59
		c-0.21-0.836-0.651-1.882-2.059-0.353c-2.602,2.827-4.563,6.122-7.263,8.94C370.762,590.708,375.867,592.417,381.231,594.305z
		 M581.133,314.131c0.301-0.716,0.05-1.116-0.213-1.494c-2.005-2.886-4.005-5.775-6.033-8.645c-1.879-2.654-3.743-5.318-5.702-7.91
		c-1.321-1.748-2.878-2.979-5.268-1.638c-0.614,0.345-1.456,0.286-2.19,0.422c-0.745,0.138-1.633,0.245-1.919,0.995
		c-0.398,1.04,0.638,1.549,1.257,1.953c4.39,2.86,7.776,6.91,11.994,9.98C575.794,309.785,578.147,312.289,581.133,314.131z
		 M348.399,577.47c0.103-0.041,0.207-0.083,0.311-0.124c-0.353-1.826-0.812-3.64-1.035-5.482c-0.425-3.508-0.859-7.012-0.842-10.568
		c0.02-4.209-5.466-8.421-11.62-9.019c0.128,0.479,0.165,0.956,0.372,1.341C339.844,561.574,344.123,569.521,348.399,577.47z
		 M391.183,507.33c-2.195-5.563-7.531-6.712-11.948-9.002c-2.394-1.24-3.482,1.613-5.359,2.08c-1.31,0.324-2.044,1.642-3.46,1.799
		c-0.846,0.094-1.761,0.545-1.598,1.605c0.159,1.037,1.131,1.001,1.984,1.094c2.931,0.317,5.852,0.941,8.783,0.984
		C383.457,505.949,387.116,507.504,391.183,507.33z M668.705,328.871c-0.176,0-0.353,0-0.529,0c-1.02,3.316-2.12,6.611-3.043,9.954
		c-1.752,6.343-4.656,12.315-5.993,18.79c-0.351,1.701,1.126,4.15,2.887,4.297c2.026,0.166,1.985-1.654,2.203-2.965
		c0.881-5.292,1.715-10.592,2.503-15.899C667.433,338.328,668.051,333.598,668.705,328.871z M441.364,493.662
		c1.326,0.559,2.088,0.313,2.899,0.094c3.326-0.895,6.513-2.189,9.952-2.812c4.051-0.733,3.979-1.072,3.43-5.291
		c-0.18-1.394-0.553-2.778-0.655-4.128c-0.219-2.902-1.304-1.799-2.421-0.723C450.222,484.998,445.909,489.23,441.364,493.662z
		 M452.425,519.674c-5.41,0.267-10.822,0.524-16.231,0.813c-0.453,0.025-0.888,0.292-1.344,0.391
		c-0.517,0.112-0.89,0.296-0.766,0.915c0.457,2.302,0.871,4.622,2.287,6.588c0.284,0.396,0.589,0.645,1.164,0.323
		C442.567,525.891,447.786,523.406,452.425,519.674z M334.116,419.129c2.385,9.891,4.67,19.378,6.957,28.865
		c0.477-1.407,0.907-2.84,0.695-4.173c-0.924-5.833-1.109-11.726-1.458-17.596C339.976,420.621,340.157,420.611,334.116,419.129z
		 M162.646,388.738c-0.565,0.643-0.361,0.999-0.169,1.294c3.067,4.697,6.019,9.5,9.205,14.079c2.896,4.16,4.82,9.438,10.687,11.209
		c4.987,1.506,10.037,2.735,15.042,4.219c-2.956-1.613-6.063-2.865-9.022-4.402c-3.207-1.668-7.069-2.231-9.556-5.096
		c-2.324-2.677-4.364-5.6-6.506-8.432C169.102,397.347,165.551,393.342,162.646,388.738z M443.156,496.553
		c8.092,0.057,16.124,1.508,24.298,0.813c-1.975-2.77-5.404-3.258-7.4-5.686c-0.351-0.428-0.984-0.563-1.562-0.309
		C453.545,493.558,448.044,494.038,443.156,496.553z M442.86,556.741c2.365-0.635,4.211-1.017,5.975-1.637
		c1.74-0.614,3.79-1.143,4.024-3.427c0.251-2.45,1.597-4.494,2.198-6.801c0.14-0.533,0.27-1.078,0.325-1.625
		c0.101-0.965-0.311-1.582-1.278-1.896c-1.024-0.329-1.483,0.128-1.994,0.956c-0.834,1.352-1.975,2.52-2.756,3.895
		C447.386,549.666,444.399,552.506,442.86,556.741z M639.535,268.21c-1.47,0.376-1.889,0.89-2.2,1.464
		c-1.942,3.594-4.22,6.946-6.849,10.083c-0.677,0.805-2.047,1.905-0.747,3.151c1.466,1.402,3.155,2.598,5.104,3.273
		c0.482,0.167,0.797-0.453,0.899-0.91C636.989,279.717,638.217,274.157,639.535,268.21z M607.562,197.558
		c1.268,3.389,2.452,6.813,3.855,10.146c0.418,0.997,1.907,1.409,1.368,3.016c-0.415,1.238,0.477,2.296,1.078,3.384
		c2.217,4,5.366,7.377,7.275,11.626c1.099,2.446,3.311,4.394,5.021,6.565C620.686,220.284,614.491,208.746,607.562,197.558z
		 M346.708,578.895c-4.767-8.67-9.031-17.722-14.439-26.144C334.797,562.719,336.881,572.926,346.708,578.895z M415.57,630.212
		c-4.543,0-8.899-0.05-13.251,0.03c-1.32,0.024-1.713,0.979-0.763,1.883c1.712,1.629,3.061,3.548,4.641,5.271
		c0.494,0.539,1.487,1.749,2.025,0.805C410.063,634.974,413.547,633.279,415.57,630.212z M391.046,618.131
		c-3.779-3.174-8.092-5.061-12.451-7.423c0.917,3.556,1.747,6.939,2.685,10.293c0.24,0.858,0.821,1.386,1.942,0.892
		C385.853,620.732,388.523,619.668,391.046,618.131z M354.991,602.116c0.321,0.036,0.643,0.073,0.965,0.108
		c2.289-4.215,4.578-8.43,6.915-12.734c-2.246-0.868-4.446-0.771-6.567-1.112c-0.694-0.111-1.323-0.039-1.319,0.952
		C355,593.592,354.991,597.855,354.991,602.116z M534.205,493.553c-3.043,0.48-3.343,3.746-5.555,5.014
		c-1.327,0.76-3.522,2.471-3.325,2.975c0.688,1.766,2.789,2.174,4.59,2.67c0.54,0.148,1.051,0.42,1.596,0.53
		c1.211,0.248,2.18-0.201,2.188-1.486C533.72,500.029,534.595,496.836,534.205,493.553z M531.314,491.849
		c-3.083-0.688-5.892-0.312-8.685-0.323c-0.649-0.002-1.38-0.026-1.464,0.908c-0.217,2.452,1.11,4.463,1.979,6.584
		c0.297,0.725,1.166,0.303,1.783,0.121c0.175-0.051,0.378-0.137,0.48-0.272C527.197,496.498,529.876,494.883,531.314,491.849z
		 M432.547,619.677c-2.956-0.836-5.549-1.23-7.883-2.396c-0.471-0.234-0.934-0.292-1.205,0.235
		c-1.426,2.758-2.936,5.492-3.219,9.144C424.432,624.147,428.574,622.57,432.547,619.677z M432.077,514.406
		c0.55-4.686,1.103-9.372,1.661-14.133c-2.402,0.166-4.402,0.998-5.828,2.377c-1.195,1.156,1.186,2.357,0.858,3.816
		c-0.039,0.173,0.013,0.375,0.054,0.558C429.396,509.643,430.521,512.038,432.077,514.406z M395.69,627.997
		c0.773-3.154-1.857-4.944-2.304-7.475c-0.15-0.852-1.297-0.813-1.953-0.525c-2.442,1.078-4.83,2.28-7.845,3.728
		C387.972,625.272,391.799,626.623,395.69,627.997z M282.396,492.428c0.799,2.275,2.246,3.571,3.534,4.966
		c2.634,2.853,3.41,2.722,5.382-0.782c0.229-0.407,0.376-0.874,0.659-1.237c1.281-1.647,0.964-2.347-1.175-2.638
		C288.079,492.366,285.387,492.693,282.396,492.428z M287.073,500.807c-2.215-1.607-3.593-3.822-5.369-5.693
		c-0.947-0.996-1.538-1.057-1.718,0.405c-0.296,2.408-0.499,4.829-0.7,7.246c-0.1,1.192,0.521,1.55,1.56,1.071
		C282.852,502.91,285.119,502.512,287.073,500.807z M442.636,642.364c0.212,0.183,0.422,0.364,0.635,0.548
		c4.815-4.771,11.424-8.221,11.73-16.38c-2.975,1.843-3.929,5.216-5.996,7.718C446.815,636.899,444.753,639.655,442.636,642.364z
		 M528.14,515.096c5.463-5.439,5.012-7.742-1.632-9.814c-0.411-0.129-0.868-0.412-1.518,0.167
		C526.004,508.553,527.047,511.747,528.14,515.096z M385.108,655.304c-3.921-3.513-7.581-6.791-11.24-10.068
		C376.967,649.159,378.9,654.42,385.108,655.304z"/>
</g>
<g id="Layer_7">
	<g>
		
			<text transform="matrix(1 0 0 1 142.6484 151.4165)" display="none" fill="#7F3A1B" font-family="'ChineseRocksRg-Regular'" font-size="111.2031" letter-spacing="5">Endstation</text>
		
			<text transform="matrix(1 0 0 1 146.9844 155.8647)" fill="#F36F21" font-family="'ChineseRocksRg-Regular'" font-size="111.2031" letter-spacing="5">Endstation</text>
	</g>
</g>
</svg>
